<svg xmlns="http://www.w3.org/2000/svg" viewBox="0 0 251.83 87.34"><defs><style>.cls-1{fill:#ffffff;}</style></defs><g id="Layer_2" data-name="Layer 2"><g id="Layer_1-2" data-name="Layer 1"><polygon class="cls-1" points="203.3 48.25 203.3 62.77 191.24 62.77 191.24 48.25 180.02 48.25 180.02 87.34 191.24 87.34 191.24 73.04 203.3 73.04 203.3 87.34 214.53 87.34 214.53 48.25 203.3 48.25"/><path class="cls-1" d="M188.41,28.71h-4.24V10.39h4.24c4.75,0,9.22,2.57,9.22,9.16s-4.47,9.16-9.22,9.16M189,0H172.94V39.09H189c12.9,0,20.6-7.93,20.6-19.54S201.93,0,189,0"/><rect class="cls-1" x="156.05" width="11.23" height="39.09"/><polygon class="cls-1" points="150.84 0 119.57 0 119.57 39.09 150.84 39.09 150.84 29.26 130.79 29.26 130.79 24.57 140.96 24.57 140.96 14.3 130.79 14.3 130.79 9.77 150.84 9.77 150.84 0"/><polygon class="cls-1" points="97.7 30.72 102.72 16.75 102.72 39.09 113.89 39.09 113.89 0 99.71 0 93.62 16.31 87.92 0 72.84 0 72.84 39.09 83.85 39.09 83.85 16.75 88.87 30.72 97.7 30.72"/><polygon class="cls-1" points="68.11 39.09 68.11 28.93 52.02 28.93 52.02 0 40.8 0 40.8 39.09 68.11 39.09"/><path class="cls-1" d="M15.82,22.73,18.45,13h.22l2.63,9.72ZM25.88,0H11.8L0,39.09H11.91l1.85-6.53h9.77l2,6.53H37.66Z"/><polygon class="cls-1" points="0 48.25 0 58.08 20.05 58.08 20.05 62.77 9.89 62.77 9.89 73.04 20.05 73.04 20.05 77.57 0 77.57 0 87.34 31.27 87.34 31.27 48.25 0 48.25"/><path class="cls-1" d="M58.24,77.57H52.43c-3.24,0-4.52-1.45-4.52-3.41s1.28-3.41,4.52-3.41h5.81Zm0-29.32v13H54.61l-7-13H35.06l8.55,14.63c-4.75,2.34-7.21,6-7.21,11.5,0,6.93,5.59,13,15,13h18V48.25Z"/><polygon class="cls-1" points="84.31 48.25 84.31 77.18 73.31 77.18 73.31 87.34 106.76 87.34 106.76 77.18 95.76 77.18 95.76 48.25 84.31 48.25"/><polygon class="cls-1" points="143.38 48.25 143.38 58.08 163.43 58.08 163.43 62.77 153.27 62.77 153.27 73.04 163.43 73.04 163.43 77.57 143.38 77.57 143.38 87.34 174.65 87.34 174.65 48.25 143.38 48.25"/><path class="cls-1" d="M120.33,64.61h5.47l-2.63,9.72H123Zm9.38-16.36-1.85,6.53h-9.77l-2-6.53H104l11.79,39.09h14.07L141.6,48.25Z"/><polygon class="cls-1" points="229.38 48.25 229.38 77.18 218.37 77.18 218.37 87.34 251.83 87.34 251.83 77.18 240.82 77.18 240.82 48.25 229.38 48.25"/><path class="cls-1" d="M225.16,22.73,227.79,13H228l2.62,9.72ZM235.21,0H221.14L209.36,39.09h11.89l1.84-6.53h9.78l2,6.53H247Z"/></g></g></svg>